Coordinates
version=1
nRows=12
nColumns=19
inDegrees=yes

Units are S.I. units (second, meters, Newtons, ...)
If the header above contains a line with 'inDegrees', this indicates whether rotational values are in degrees (yes) or radians (no).

endheader
time	subtalar_angle_l	subtalar_angle_r	pelvis_list	pelvis_rotation	pelvis_tilt	pelvis_tx	pelvis_ty	pelvis_tz	hip_flexion_l	hip_adduction_l	hip_rotation_l	hip_flexion_r	hip_adduction_r	hip_rotation_r	knee_flexion_l	knee_flexion_r	ankle_angle_l	ankle_angle_r
      0.00000000	     18.57632218	     15.02017116	     94.45505215	     11.95289006	     10.64444825	     -1.91397024	     -0.77035858	      0.72199612	    -29.57146375	     -8.73889552	    -25.56256882	     19.09554924	     -2.05623111	     -2.60331096	    -11.62065320	    -22.98842731	      6.42547065	     -4.66577500
      0.01000000	     18.45712599	     14.58102337	     93.86824719	     12.38409902	      9.99700280	     -1.89986572	     -0.77004926	      0.72211854	    -27.89763509	     -8.33819343	    -24.21090926	     18.29601148	     -1.12472531	     -2.13455673	    -14.95542364	    -22.63411161	      5.02319913	     -3.06681407
      0.02000000	     18.50966945	     13.75430842	     93.18734984	     12.83694225	      9.67196861	     -1.88577513	     -0.76982454	      0.72199094	    -26.52469936	     -7.74463224	    -22.76396608	     17.23162626	     -0.11959919	     -1.84187253	    -18.22089254	    -22.32282278	      3.25928487	     -1.24515742
      0.03000000	     18.56455231	     12.98104603	     92.43449658	     13.22675841	      9.41279267	     -1.87186726	     -0.76972761	      0.72189368	    -25.14387411	     -7.01874200	    -21.26891623	     16.11286279	      1.02033650	     -1.38832621	    -21.43868585	    -21.91883501	      1.50875075	      0.25921475
      0.04000000	     18.62114836	     12.32729828	     91.63253895	     13.53329459	      9.22754723	     -1.85819975	     -0.76975331	      0.72191410	    -23.72425457	     -6.19134117	    -19.68871842	     14.96801279	      2.22901884	     -0.92551441	    -24.63862454	    -21.46962041	     -0.30369933	      1.56328275
      0.05000000	     18.67941300	     11.74593343	     90.78744940	     13.72817003	      9.12742238	     -1.84481446	     -0.76991188	      0.72213524	    -22.25438868	     -5.27112822	    -18.00212713	     13.77807098	      3.49100723	     -0.46056134	    -27.82988113	    -20.95553147	     -2.18961138	      2.66265145
      0.06000000	     18.72436825	     11.25336657	     89.92036068	     13.79617825	      9.06711818	     -1.83175806	     -0.77021069	      0.72261726	    -20.67472782	     -4.27755302	    -16.22129769	     12.57433675	      4.77388204	      0.00620343	    -31.02317878	    -20.35347947	     -4.05820276	      3.51711454
      0.07000000	     18.75878295	     10.90350961	     89.05125047	     13.73091713	      8.99311321	     -1.81906278	     -0.77065580	      0.72339293	    -18.93375569	     -3.22600212	    -14.37666520	     11.39666239	      6.04730510	      0.46955950	    -34.21061928	    -19.64739522	     -5.81316427	      4.14211436
      0.08000000	     18.79152065	     10.73314623	     88.21433245	     13.53497144	      8.87217245	     -1.80674833	     -0.77123951	      0.72445039	    -17.01332849	     -2.14600860	    -12.50964332	     10.26717169	      7.26419754	      0.91303848	    -37.37383978	    -18.84319158	     -7.35143386	      4.55603198
      0.09000000	     18.83132453	     10.70391080	     87.42465763	     13.22239501	      8.73058810	     -1.79479819	     -0.77195284	      0.72577012	    -14.97348980	     -1.05046286	    -10.67166434	      9.12695657	      8.40504776	      1.36577691	    -40.46241446	    -17.91275542	     -8.63270719	      4.77201523
      0.10000000	     18.88421540	     10.82876098	     86.71542100	     12.80702157	      8.52866647	     -1.78321080	     -0.77278156	      0.72730450	    -12.79570424	      0.02361646	     -8.90409448	      8.01875197	      9.43086786	      1.81292388	    -43.44513817	    -16.88983274	     -9.57879952	      4.82345011
      0.11000000	     18.78946076	     11.06944424	     86.10923348	     12.28970610	      8.32588010	     -1.77195906	     -0.77368134	      0.72899095	    -10.57704597	      1.04656361	     -7.21398187	      6.86490482	     10.32578220	      2.32680337	    -46.26622134	    -15.78604052	     -9.90170697	      4.84320330
